<?xml version="1.0" standalone="no"?>
<!DOCTYPE svg PUBLIC "-//W3C//DTD SVG 20010904//EN"
 "http://www.w3.org/TR/2001/REC-SVG-20010904/DTD/svg10.dtd">
<svg version="1.0" xmlns="http://www.w3.org/2000/svg"
 width="500.000000pt" height="500.000000pt" viewBox="0 0 500.000000 500.000000"
 preserveAspectRatio="xMidYMid meet">
<metadata>
Created by potrace 1.11, written by Peter Selinger 2001-2013
</metadata>
<g transform="translate(0.000000,500.000000) scale(0.100000,-0.100000)"
fill="#000000" stroke="none">
<path d="M2538 4706 c-1 -2 -111 -6 -243 -10 -283 -7 -311 -11 -332 -43 -16
-24 -14 -38 33 -261 l4 -22 168 7 c215 10 464 10 673 0 l167 -7 6 32 c13 67
16 85 32 155 18 81 10 109 -31 118 -14 3 -35 7 -48 10 -12 2 -108 7 -212 10
-105 4 -195 8 -202 10 -6 2 -13 2 -15 1z m-8 -72 c0 -17 30 -39 54 -40 12 -1
29 -5 40 -9 17 -7 16 -11 -14 -36 -31 -28 -32 -31 -26 -79 l7 -51 -42 22 -43
21 -43 -21 -44 -21 7 50 c6 47 5 51 -25 76 -36 30 -31 43 19 47 30 2 39 9 59
46 22 41 25 43 38 26 7 -11 13 -24 13 -31z"/>
<path d="M1750 4453 c-67 -11 -238 -44 -260 -49 -14 -3 -36 -7 -50 -10 -13 -3
-26 -7 -28 -9 -2 -2 6 -30 19 -63 l23 -59 90 23 c50 13 92 21 95 19 2 -3 9 -1
15 4 6 5 31 12 56 15 25 3 56 8 70 11 14 3 38 6 53 7 23 2 27 6 22 23 -8 29
-16 58 -19 75 -3 16 -41 21 -86 13z"/>
<path d="M3170 4435 c-6 -15 -11 -41 -13 -58 -2 -25 2 -32 18 -34 11 -1 31 -4
45 -7 14 -4 39 -8 55 -10 69 -10 107 -18 188 -40 l85 -22 26 58 c17 42 21 60
13 63 -29 10 -137 34 -197 44 -36 6 -76 13 -90 16 -14 3 -46 8 -72 11 -45 6
-48 5 -58 -21z"/>
<path d="M1125 4311 c-161 -61 -209 -81 -224 -90 -10 -7 -5 -21 28 -69 22 -34
45 -63 50 -66 5 -3 48 14 96 38 48 24 121 55 161 68 41 12 74 27 74 31 0 19
-62 127 -73 127 -6 -1 -57 -18 -112 -39z"/>
<path d="M2235 4344 c-22 -2 -92 -9 -155 -15 -63 -6 -164 -19 -224 -30 -60
-10 -112 -16 -117 -14 -4 3 -10 1 -13 -4 -3 -4 -16 -9 -28 -9 -22 -1 -63 -9
-63 -12 0 -1 -16 -3 -35 -6 -40 -5 -211 -51 -352 -95 -53 -17 -103 -32 -110
-33 -15 -3 -23 -7 -132 -50 -110 -44 -115 -52 -82 -168 14 -51 35 -132 46
-179 l22 -85 -41 -91 c-23 -50 -41 -97 -41 -104 0 -8 17 -75 38 -149 43 -152
50 -160 106 -110 49 45 69 93 75 180 l6 75 70 37 c39 21 95 45 125 54 30 8 92
28 136 44 83 29 245 75 299 85 17 2 41 7 55 10 103 21 262 44 374 52 183 14
578 8 731 -11 172 -22 184 -23 215 -31 14 -4 35 -7 48 -8 12 -1 22 -4 22 -7 0
-3 8 -6 18 -6 51 -2 252 -58 336 -93 23 -10 60 -22 82 -25 22 -4 82 -28 133
-55 l94 -47 2 -65 c3 -74 28 -140 70 -181 27 -27 62 -44 72 -35 2 3 22 70 44
150 l40 144 -41 84 c-22 45 -40 93 -40 106 0 13 18 93 40 177 46 175 47 187
21 210 -18 16 -174 84 -209 91 -10 1 -76 21 -147 43 -210 64 -248 75 -320 87
-16 3 -97 17 -180 31 -270 46 -369 55 -665 59 -157 1 -303 1 -325 -1z m365
-43 c49 -1 56 -4 56 -21 0 -21 -3 -22 -74 -23 -42 0 -43 -1 -40 -31 3 -28 6
-31 40 -31 20 -1 40 -4 43 -7 14 -14 -12 -34 -45 -34 -32 0 -35 -2 -38 -32
l-3 -32 54 0 c58 0 69 -4 60 -26 -4 -10 -25 -14 -83 -14 -67 0 -79 3 -83 18
-7 26 -2 215 5 228 4 6 17 10 30 8 13 -1 48 -3 78 -3z m-147 -16 c7 -18 -2
-24 -41 -27 l-30 -2 1 -101 2 -100 -25 0 c-25 0 -25 1 -28 90 -3 111 -5 115
-36 109 -26 -4 -41 9 -33 30 8 20 183 21 190 1z m298 -7 c7 -13 12 -24 11 -25
-1 -2 5 -18 13 -37 8 -20 15 -41 15 -48 0 -19 15 1 48 62 20 38 36 56 52 58
32 5 37 -8 33 -85 -2 -38 -5 -87 -6 -110 -3 -47 -18 -69 -42 -60 -13 5 -15 20
-12 77 2 38 2 70 0 70 -1 0 -14 -20 -29 -45 -14 -25 -32 -45 -41 -45 -8 0 -24
23 -36 53 l-22 52 -5 -70 c-5 -63 -7 -70 -28 -73 -22 -3 -23 -3 -17 90 9 140
13 158 35 158 11 0 25 -10 31 -22z m-526 -2 c11 -8 16 -19 12 -30 -7 -18 -32
-22 -42 -6 -10 16 -52 11 -59 -6 -8 -20 -11 -17 39 -42 74 -38 94 -67 79 -115
-13 -41 -100 -56 -156 -26 -20 11 -22 18 -9 38 7 11 15 11 45 0 26 -9 42 -10
53 -3 26 16 19 28 -40 59 -78 41 -92 90 -39 133 21 16 93 15 117 -2z m-198
-21 c4 -23 15 -156 17 -199 1 -22 -4 -30 -21 -32 -29 -5 -30 -2 -37 86 -4 41
-9 90 -12 108 -7 36 10 65 34 60 8 -2 17 -12 19 -23z m1084 -15 c4 -14 14 -64
23 -112 9 -47 19 -94 22 -103 5 -13 2 -16 -16 -13 -15 2 -27 14 -34 33 -10 27
-16 31 -52 34 -37 2 -42 0 -48 -23 -5 -21 -13 -26 -36 -26 -17 0 -30 3 -30 7
0 3 25 58 55 120 51 107 57 114 82 111 18 -2 29 -11 34 -28z m-1200 10 c21
-12 25 -35 8 -46 -6 -3 -22 -1 -35 6 -19 11 -26 11 -39 0 -20 -16 -12 -26 44
-54 60 -31 79 -63 61 -106 -7 -16 -22 -32 -34 -35 -52 -12 -76 -13 -82 -4 -3
5 -9 7 -14 4 -16 -10 -30 21 -17 38 10 15 17 16 44 5 25 -9 36 -9 44 -1 19 19
3 40 -45 61 -69 31 -87 84 -40 121 29 23 74 27 105 11z m1159 -208 c0 -14 -40
-52 -54 -52 -22 0 -25 12 -9 36 14 23 63 35 63 16z m-578 -81 c24 -33 46 -60
49 -60 4 -1 6 21 5 49 -3 60 6 80 31 64 15 -9 18 -26 18 -110 0 -94 -1 -99
-22 -102 -16 -2 -29 8 -52 42 -17 24 -31 49 -31 54 0 5 -7 15 -16 23 -14 11
-16 9 -14 -27 4 -86 2 -96 -22 -92 -22 3 -23 8 -26 102 -3 95 2 115 30 116 3
0 26 -27 50 -59z m-114 32 c-2 -13 -15 -19 -46 -21 -36 -3 -42 -6 -42 -26 0
-19 4 -22 29 -18 20 3 30 -1 35 -14 8 -21 -7 -32 -40 -28 -21 2 -24 -2 -24
-28 0 -30 1 -30 38 -25 42 7 65 -3 57 -24 -4 -11 -22 -15 -72 -15 l-66 1 -3
95 c-2 52 -2 101 1 108 3 8 27 12 70 12 58 0 66 -2 63 -17z m407 -5 c23 -18
25 -22 11 -30 -10 -5 -24 -5 -37 2 -28 16 -66 5 -74 -21 -13 -40 -12 -54 3
-81 18 -30 32 -34 63 -17 15 8 24 7 36 -2 13 -12 13 -15 -7 -31 -35 -28 -86
-23 -121 11 -28 28 -31 37 -31 81 0 45 3 53 33 81 38 35 84 38 124 7z m-575
-8 c0 -16 -7 -20 -30 -20 -27 0 -35 -9 -31 -34 1 -5 4 -37 6 -73 4 -51 2 -65
-11 -70 -26 -10 -35 10 -40 87 -2 41 -7 76 -10 79 -3 3 -18 6 -32 6 -17 0 -28
6 -30 17 -3 18 20 23 126 26 46 2 52 0 52 -18z m673 -40 c-4 -116 -13 -160
-33 -160 -29 0 -31 11 -21 109 11 101 15 114 39 109 14 -3 17 -14 15 -58z
m-882 33 c6 -36 9 -56 13 -106 3 -32 8 -62 11 -66 2 -5 -1 -16 -8 -25 -15 -20
-46 -12 -45 12 1 21 -10 118 -17 151 -2 13 -2 28 1 32 6 11 44 12 45 2z m1044
-3 c6 -9 20 -67 50 -195 7 -33 -33 -30 -48 3 -15 34 -25 42 -59 42 -18 0 -29
-6 -33 -19 -7 -23 -31 -34 -51 -23 -15 8 -19 -1 51 130 30 57 43 72 61 72 13
0 26 -5 29 -10z m-1126 -52 c21 -110 24 -150 11 -158 -21 -13 -33 -3 -76 55
-39 55 -60 70 -50 38 3 -10 8 -39 11 -64 6 -41 5 -47 -14 -52 -12 -3 -23 -2
-25 1 -2 4 -11 52 -21 106 -17 101 -14 117 20 112 14 -2 90 -79 98 -98 3 -7 3
15 1 50 -5 57 -4 62 15 62 16 0 22 -10 30 -52z m1349 20 c36 -30 33 -85 -6
-114 -12 -8 -12 -17 -1 -52 14 -47 10 -57 -20 -47 -13 4 -24 20 -31 46 -6 21
-12 39 -15 39 -2 0 -10 3 -19 6 -12 5 -16 -1 -16 -22 0 -43 -14 -61 -34 -45
-9 7 -14 16 -12 20 2 3 7 40 10 81 10 116 9 114 74 106 31 -4 62 -12 70 -18z
m-1561 -21 c-3 -8 -24 -17 -47 -21 -35 -6 -41 -10 -38 -29 3 -19 8 -22 41 -19
32 2 37 0 37 -18 0 -11 -4 -20 -9 -20 -5 0 -21 -4 -35 -9 -18 -7 -23 -15 -19
-30 5 -18 11 -20 47 -15 22 4 45 7 50 8 6 0 11 -7 14 -16 3 -17 -24 -28 -110
-43 -39 -7 -38 -9 -54 80 -2 17 -7 37 -9 45 -3 8 -7 32 -10 53 -5 29 -3 37 9
38 18 2 35 5 39 9 1 1 18 4 37 7 19 2 37 7 39 9 9 9 24 -15 18 -29z m1675 1
c8 -21 -37 -201 -50 -206 -7 -2 -19 -2 -26 1 -12 5 -12 16 0 74 26 124 33 143
53 143 11 0 21 -6 23 -12z m-1865 -33 c50 -35 32 -117 -29 -130 -29 -7 -30 -8
-24 -50 5 -33 3 -44 -8 -48 -9 -4 -17 -3 -20 1 -11 20 -56 205 -51 211 8 7 74
28 95 30 9 1 25 -6 37 -14z m2044 -16 c17 -20 20 -34 17 -80 -5 -76 -36 -119
-84 -119 -39 0 -72 14 -91 39 -27 36 -6 146 35 178 26 21 98 11 123 -18z"/>
<path d="M3051 4159 c-14 -41 -15 -39 15 -39 22 0 25 3 20 23 -3 12 -6 28 -6
35 0 23 -18 12 -29 -19z"/>
<path d="M2998 3891 c-15 -28 -15 -29 5 -35 27 -7 27 -7 19 31 l-7 33 -17 -29z"/>
<path d="M3182 3911 c-1 -9 -3 -25 -4 -36 -4 -28 46 -34 61 -8 12 24 3 39 -30
51 -20 8 -25 7 -27 -7z"/>
<path d="M1451 3851 c-20 -13 -6 -61 18 -61 24 0 34 26 21 51 -12 21 -18 23
-39 10z"/>
<path d="M3459 3838 c-36 -66 -23 -128 25 -128 32 0 48 22 54 77 4 37 1 49
-13 60 -28 19 -53 16 -66 -9z"/>
<path d="M3748 4328 c-18 -30 -41 -79 -44 -98 -2 -11 18 -22 69 -38 40 -13
108 -41 152 -62 44 -22 85 -40 92 -42 10 -3 42 35 87 103 l17 27 -105 41 c-86
34 -243 91 -252 91 -1 0 -8 -10 -16 -22z"/>
<path d="M2300 3687 c-3 -3 -52 -8 -110 -11 -58 -4 -112 -9 -120 -11 -8 -3
-36 -7 -63 -9 -44 -5 -94 -13 -142 -23 -11 -2 -29 -6 -40 -7 -19 -4 -58 -11
-100 -20 -11 -2 -67 -16 -125 -31 -58 -15 -118 -29 -134 -32 -24 -4 -135 -40
-282 -93 -31 -11 -31 -12 -22 -53 26 -115 -12 -214 -100 -264 -59 -33 -80 -60
-90 -115 -8 -43 12 -143 109 -528 17 -69 32 -129 33 -135 25 -106 136 -427
175 -505 61 -120 98 -186 129 -232 16 -24 32 -53 36 -64 4 -12 15 -29 26 -39
11 -10 20 -21 20 -25 0 -24 357 -385 445 -450 33 -24 62 -47 63 -52 2 -4 9 -8
15 -8 7 0 23 -12 36 -25 13 -14 18 -25 13 -25 -6 0 -14 5 -17 10 -4 6 -10 8
-15 5 -5 -3 -11 -1 -15 5 -7 12 -90 51 -160 75 -49 17 -243 28 -299 18 -24 -5
-23 -6 21 -50 103 -100 177 -146 292 -183 55 -17 86 -20 203 -18 76 2 138 4
138 6 0 8 -239 109 -275 116 -32 6 -85 29 -85 36 0 10 117 -13 199 -39 35 -12
66 -19 69 -16 3 3 -1 5 -8 5 -7 0 -10 3 -7 6 4 4 24 -4 44 -18 21 -13 77 -50
125 -81 169 -111 223 -121 342 -61 39 20 73 40 76 44 3 4 37 26 75 50 39 23
82 51 97 61 23 16 27 17 21 3 -5 -13 -3 -15 13 -6 26 13 182 52 211 52 32 0
29 -15 -4 -18 -15 -1 -32 -7 -37 -12 -6 -6 -16 -10 -24 -10 -18 0 -262 -102
-262 -110 0 -3 65 -6 144 -7 129 -1 150 1 211 23 108 39 164 75 263 169 l53
50 -27 7 c-29 8 -221 3 -267 -7 -16 -3 -72 -27 -125 -52 -156 -75 -160 -71
-24 25 114 79 317 279 498 490 13 15 24 31 24 35 0 5 25 49 55 98 52 84 157
282 162 304 1 6 22 66 46 135 24 69 48 143 54 165 6 22 23 83 38 135 15 52 28
104 30 114 3 10 9 33 15 50 5 17 12 51 14 76 3 25 11 64 20 87 8 22 17 56 20
75 3 18 15 69 26 113 24 97 25 123 4 174 -11 28 -26 44 -51 56 -56 27 -110 82
-125 128 -15 44 -16 72 -4 148 l7 47 -48 17 c-26 9 -57 21 -68 26 -38 17 -141
48 -265 79 -69 17 -132 33 -140 35 -34 9 -228 46 -265 51 -22 3 -51 7 -65 10
-14 2 -52 6 -85 10 -33 3 -71 8 -85 11 -32 7 -524 15 -530 10z m865 -191 c17
-3 89 -18 105 -21 3 -1 23 -5 45 -9 22 -4 54 -12 71 -17 17 -5 40 -11 50 -14
10 -2 48 -13 84 -24 36 -11 70 -21 75 -21 6 -1 15 -5 20 -10 6 -4 25 -11 42
-15 18 -3 35 -10 37 -14 3 -4 7 -35 10 -68 2 -34 12 -79 22 -100 20 -44 95
-123 140 -146 55 -28 56 -34 27 -138 -28 -102 -40 -126 -56 -110 -6 6 -5 27 2
58 6 26 13 60 15 75 3 15 7 31 10 36 7 11 -3 23 -49 57 -52 38 -85 71 -85 85
0 5 -4 10 -9 10 -23 0 -63 120 -65 192 -1 28 -168 81 -446 143 -208 47 -198
44 -180 56 13 9 61 7 135 -5z m-1288 -10 c4 -3 2 -10 -3 -15 -7 -6 -197 -55
-261 -67 -20 -4 -85 -24 -174 -55 l-86 -31 -7 -55 c-4 -31 -15 -76 -26 -99
-18 -42 -97 -128 -153 -169 l-28 -20 21 -94 c16 -75 18 -96 8 -102 -17 -11
-26 8 -50 95 -28 102 -30 123 -12 141 8 8 19 15 23 15 4 0 19 9 32 21 13 11
29 24 34 27 6 4 27 26 47 49 39 44 60 100 63 171 1 23 6 46 11 51 5 5 52 24
104 41 108 36 92 31 230 64 58 14 121 29 140 34 38 9 77 8 87 -2z m-618 -1013
c7 -27 26 -91 41 -143 62 -206 75 -284 31 -189 -19 42 -98 298 -102 329 -7 63
12 65 30 3z m2508 -26 c-3 -23 -10 -54 -15 -67 -6 -14 -29 -86 -53 -160 -47
-153 -47 -152 -60 -144 -5 3 -6 11 -2 17 4 7 8 18 9 25 3 15 29 104 54 182 10
30 26 85 35 123 20 75 40 91 32 24z m-1917 -1497 c0 -5 -2 -10 -4 -10 -3 0 -8
5 -11 10 -3 6 -1 10 4 10 6 0 11 -4 11 -10z"/>
<path d="M848 2678 c-11 -32 4 -118 32 -182 22 -52 56 -90 124 -135 42 -29 47
-31 42 -13 -4 11 -8 29 -10 39 -2 10 -14 35 -26 56 -12 20 -18 37 -13 37 10 0
37 -30 47 -51 3 -8 3 4 0 26 -3 22 -16 58 -29 80 -42 72 -157 171 -167 143z"/>
<path d="M4093 2651 c-64 -46 -124 -135 -137 -201 l-6 -35 25 30 26 30 -15
-31 c-8 -17 -12 -34 -9 -38 4 -3 1 -6 -5 -6 -7 0 -12 -12 -12 -26 0 -14 -5
-35 -11 -47 -11 -20 -9 -20 17 4 16 14 43 34 59 44 48 30 103 107 120 170 14
50 14 135 0 135 -7 0 -30 -13 -52 -29z"/>
<path d="M834 2405 c-4 -8 6 -50 21 -93 40 -113 92 -179 180 -227 28 -15 65
-37 84 -48 l33 -20 -12 24 c-16 28 -50 78 -68 97 -7 8 -20 28 -29 45 -9 18
-23 37 -32 44 -9 6 -13 14 -9 18 6 7 108 -94 108 -107 0 -5 4 -8 10 -8 11 0
-16 63 -49 110 -35 52 -109 116 -174 150 -49 27 -58 29 -63 15z"/>
<path d="M4120 2398 c-25 -12 -50 -27 -57 -33 -6 -5 -30 -23 -52 -39 -42 -31
-72 -70 -110 -144 -28 -54 -14 -54 34 3 21 24 44 46 52 49 16 7 17 1 0 -16
-17 -18 -111 -157 -127 -188 -13 -24 -12 -25 7 -7 11 9 25 17 31 17 7 0 12 5
12 10 0 6 6 10 14 10 23 0 123 74 156 115 46 58 79 132 87 192 3 29 4 53 2 53
-2 0 -24 -10 -49 -22z"/>
<path d="M900 2085 c0 -16 46 -135 63 -165 27 -46 94 -120 132 -146 16 -11 62
-33 100 -48 39 -15 76 -32 83 -38 23 -20 12 4 -25 50 -20 26 -69 78 -107 115
-48 46 -62 65 -43 56 15 -7 27 -16 27 -21 0 -5 4 -7 8 -4 9 5 24 -6 89 -67 27
-25 31 -26 27 -10 -3 11 -19 35 -35 52 -16 18 -29 35 -29 39 0 9 -73 78 -126
120 -62 47 -164 90 -164 67z"/>
<path d="M4020 2068 c-43 -20 -136 -92 -172 -133 -54 -62 -71 -83 -85 -110
l-16 -30 34 28 c19 15 51 39 72 53 45 29 84 44 49 18 -31 -23 -79 -72 -122
-124 -19 -24 -40 -48 -46 -54 -5 -6 -13 -19 -17 -29 -6 -17 -5 -17 21 1 15 10
59 32 97 48 54 22 84 43 134 94 58 60 106 136 115 185 2 11 9 32 15 48 10 24
8 27 -12 27 -12 -1 -42 -10 -67 -22z"/>
<path d="M1012 1723 c54 -117 74 -150 127 -205 34 -34 61 -59 61 -55 0 4 21
-5 46 -19 50 -28 89 -41 144 -50 19 -3 44 -8 55 -12 11 -3 23 -6 27 -7 3 0 10
-3 14 -7 4 -5 11 -8 16 -8 10 0 -67 80 -91 94 -53 32 -161 110 -161 117 0 15
97 -32 157 -77 63 -47 41 -5 -33 65 -73 69 -212 151 -255 151 -10 0 -20 4 -23
8 -6 10 -89 15 -84 5z"/>
<path d="M3915 1721 c-11 -5 -23 -7 -27 -4 -5 2 -8 -1 -8 -7 0 -6 -4 -9 -8 -6
-15 9 -145 -62 -207 -112 -56 -46 -125 -122 -109 -122 3 0 26 14 51 30 63 43
153 87 153 76 0 -3 -30 -26 -67 -52 -38 -26 -69 -52 -71 -56 -2 -4 -9 -8 -17
-8 -16 0 -105 -85 -105 -101 0 -9 3 -9 14 0 16 14 63 28 118 36 66 10 185 74
240 129 42 42 118 170 118 199 0 9 -50 7 -75 -2z"/>
<path d="M1237 1371 c-17 -6 -15 -10 12 -45 91 -114 177 -182 274 -215 28 -10
85 -19 124 -20 40 -1 86 -6 103 -11 16 -5 30 -6 30 -2 0 6 -118 86 -130 88
-19 3 -169 82 -165 86 10 10 142 -30 169 -51 21 -15 45 -20 40 -8 -8 20 -184
137 -184 122 0 -2 -15 4 -32 14 -33 18 -73 30 -118 37 -74 10 -107 11 -123 5z"/>
<path d="M3718 1375 c-1 -2 -25 -5 -53 -8 -110 -12 -254 -81 -344 -165 l-36
-33 74 35 c41 20 78 33 83 30 4 -3 8 0 8 6 0 7 6 10 13 7 8 -3 20 -1 27 3 8 5
18 6 23 3 5 -3 -38 -29 -96 -58 -109 -54 -196 -106 -197 -116 0 -3 12 -4 28
-2 15 3 69 8 120 13 118 9 210 52 298 137 62 61 120 131 113 138 -6 5 -57 14
-61 10z"/>
<path d="M1246 981 c-3 -4 8 -56 25 -115 l31 -108 -23 -56 c-13 -31 -29 -68
-36 -82 -19 -37 -16 -42 18 -35 54 12 63 13 93 14 l28 1 -5 117 c-7 155 -1
166 102 197 l44 13 -33 31 c-33 32 -34 32 -136 32 -57 0 -105 -4 -108 -9z"/>
<path d="M3515 959 l-36 -32 56 -18 c95 -29 97 -33 94 -179 l-4 -125 50 -7
c27 -4 60 -10 72 -13 18 -4 23 -1 23 14 0 11 -4 22 -9 25 -4 3 -18 33 -31 68
-23 62 -23 63 -5 138 10 41 20 79 23 85 3 5 7 16 8 25 1 8 3 22 5 30 3 13 -14
15 -103 18 l-107 3 -36 -32z"/>
<path d="M1485 886 c-64 -28 -65 -30 -65 -224 l0 -178 28 -31 c16 -17 43 -38
59 -47 29 -15 160 -53 213 -62 14 -3 59 -11 100 -19 153 -30 350 -46 615 -50
365 -5 531 9 860 70 123 23 219 62 261 106 l29 30 2 172 c1 131 -2 177 -12
193 -16 24 -73 54 -104 54 -29 0 -27 -18 3 -26 14 -3 32 -14 42 -25 16 -18 16
-20 -6 -44 -54 -58 -288 -113 -595 -140 -211 -19 -580 -20 -815 -1 -146 12
-175 15 -313 41 -171 32 -290 76 -304 112 -7 17 10 49 24 46 5 -1 20 7 33 18
l25 19 -25 -1 c-14 0 -39 -6 -55 -13z m1615 -266 c0 -6 -7 -13 -15 -16 -19 -8
-19 -28 0 -58 26 -40 65 -150 57 -158 -12 -12 -42 1 -42 17 0 32 -73 21 -78
-12 -2 -13 -12 -23 -28 -26 -30 -5 -30 3 -3 121 16 70 25 92 42 101 19 10 18
11 -15 7 -38 -5 -55 5 -43 24 8 13 125 13 125 0z m181 -11 c45 -18 66 -133 31
-175 -22 -28 -73 -45 -95 -32 -9 5 -17 6 -17 3 0 -10 -37 29 -49 52 -6 12 -11
42 -11 68 0 36 5 51 25 69 27 25 75 32 116 15z m-1421 -33 c6 -19 12 -44 13
-55 2 -30 9 -26 40 24 22 34 35 45 54 45 l25 0 -7 -72 c-11 -117 -18 -143 -40
-143 -18 0 -20 6 -17 60 l2 60 -27 -38 c-30 -42 -41 -38 -59 21 l-10 37 -8
-57 c-7 -56 -21 -73 -45 -58 -10 6 -10 24 -1 86 17 119 19 124 45 124 18 0 26
-8 35 -34z m266 -9 c10 -6 27 -58 39 -120 4 -19 8 -32 20 -74 5 -19 2 -23 -17
-23 -17 0 -27 8 -34 28 -14 38 -60 42 -89 8 -13 -16 -26 -22 -37 -18 -15 6
-12 19 31 109 47 97 58 109 87 90z m801 1 c4 -7 9 -57 11 -111 3 -98 3 -99
-20 -95 -19 2 -24 10 -26 41 -3 36 -5 37 -41 37 l-37 0 0 -42 c1 -36 -2 -43
-20 -46 -20 -3 -21 3 -28 99 -7 105 -2 127 28 116 11 -4 16 -19 16 -46 0 -42
-2 -41 72 -32 3 1 4 18 2 38 -6 44 23 72 43 41z m-589 -24 c27 -18 30 -74 6
-99 -14 -13 -14 -20 -4 -46 7 -16 16 -31 20 -34 4 -2 24 41 45 95 33 88 40
100 61 100 13 0 24 -2 24 -4 0 -2 16 -48 35 -102 19 -54 35 -101 35 -106 0 -4
-11 -8 -24 -8 -17 0 -26 7 -30 25 -5 18 -13 25 -31 25 -14 0 -28 1 -32 1 -5 1
-14 -10 -21 -25 -12 -23 -18 -25 -60 -22 -47 3 -50 6 -71 59 -14 36 -31 26
-31 -19 0 -30 -3 -34 -25 -34 l-24 0 2 98 c1 53 6 102 10 109 10 15 84 7 115
-13z m305 -25 c15 -21 27 -43 27 -48 0 -5 7 -14 15 -21 13 -11 14 -5 13 43 -2
59 3 73 24 64 9 -3 14 -34 16 -106 3 -92 1 -101 -15 -101 -10 0 -35 24 -57 55
-22 30 -41 55 -43 55 -2 0 -2 -24 1 -54 3 -43 1 -56 -12 -61 -8 -3 -20 -1 -25
4 -10 10 -19 189 -10 203 11 19 40 4 66 -33z"/>
<path d="M3042 491 c-2 -22 2 -31 13 -31 18 0 19 20 2 44 -11 15 -13 14 -15
-13z"/>
<path d="M3201 561 c-16 -16 -18 -26 -11 -55 13 -60 48 -84 78 -54 17 17 15
79 -4 106 -19 27 -38 28 -63 3z"/>
<path d="M2092 483 c-15 -28 -15 -33 2 -33 20 0 25 11 16 35 -7 19 -7 19 -18
-2z"/>
<path d="M2269 525 c-6 -32 -1 -60 13 -63 26 -5 42 33 22 52 -15 16 -33 21
-35 11z"/>
<path d="M2454 464 c-4 -10 -9 -22 -11 -26 -2 -5 5 -8 16 -8 15 0 20 6 18 20
-5 29 -16 36 -23 14z"/>
</g>
</svg>
